# xmcd
#
# Track frame offsets:
#	150
#	11912
#	24003
#	35639
#	47503
#	60914
#	72748
#	86097
#	96552
#	108668
#	121366
#	132577
#	144754
#	157272
#	167696
#	180551
#	192109
#	204331
#	216541
#	228602
#	239488
#	250870
#	263850
#	275623
#	284963
#
# Disc length: 3948 seconds
#
# Revision: 0
# Processed by: cddbd v1.5.1PL0 Copyright (c) Steve Scherf et al.
# Submitted via: EasyCDDAExtractor 4.6.9.1
#
DISCID=850f6a19
DTITLE=Kitty Wells - God's Honky Tonk Angel (The First Queen Of Country Music)
DYEAR=2000
DGENRE=Country
TTITLE0=It Wasn't God Who Made Honky Tonk Angels
TTITLE1=Paying For That Back Street Affair
TTITLE2=Crying Steel Guitar Waltz
TTITLE3=Hey Joe
TTITLE4=One By One (With Red Foley)
TTITLE5=As Long As I Live (With Red Foley)
TTITLE6=Makin' Believe
TTITLE7=Whose Shoulder Will You Cry On
TTITLE8=There's Poison In Your Heart
TTITLE9=You And Me (With Red Foley)
TTITLE10=Searching (For Someone Like You)
TTITLE11=Repenting
TTITLE12=Oh So Many Years (With Webb Pierce)
TTITLE13=I Can't Stop Loving You
TTITLE14=Jealousy
TTITLE15=Mommy For A Day
TTITLE16=Amigo's Guitar
TTITLE17=Left To Right
TTITLE18=Heartbreak U.S.A.
TTITLE19=Unloved Unwanted
TTITLE20=Will Your Lawyer Talk To God
TTITLE21=This White Circle On My Finger
TTITLE22=Password
TTITLE23=I'll Repossess My Heart
TTITLE24=You Don't Hear
EXTD=
EXTT0=
EXTT1=
EXTT2=
EXTT3=
EXTT4=
EXTT5=
EXTT6=
EXTT7=
EXTT8=
EXTT9=
EXTT10=
EXTT11=
EXTT12=
EXTT13=
EXTT14=
EXTT15=
EXTT16=
EXTT17=
EXTT18=
EXTT19=
EXTT20=
EXTT21=
EXTT22=
EXTT23=
EXTT24=
PLAYORDER=
